<svg xmlns="http://www.w3.org/2000/svg" viewBox="0 0 512 512">
  <defs>
    <linearGradient id="bg" x1="0%" y1="0%" x2="100%" y2="100%">
      <stop offset="0%" style="stop-color:#1a5f4a"/>
      <stop offset="100%" style="stop-color:#145040"/>
    </linearGradient>
  </defs>
  <!-- Background circle -->
  <circle cx="256" cy="256" r="256" fill="url(#bg)"/>
  <!-- Celtic knot / shamrock inspired design -->
  <g fill="#ffffff" transform="translate(256, 256)">
    <!-- Location pin shape -->
    <path d="M0,-180 C-80,-180 -140,-120 -140,-40 C-140,60 0,180 0,180 C0,180 140,60 140,-40 C140,-120 80,-180 0,-180 Z M0,-10 C-30,-10 -55,-35 -55,-65 C-55,-95 -30,-120 0,-120 C30,-120 55,-95 55,-65 C55,-35 30,-10 0,-10 Z" 
          opacity="0.95"/>
    <!-- Inner castle icon -->
    <g transform="translate(0, -65) scale(0.4)">
      <path d="M-60,-60 L-60,40 L-30,40 L-30,0 L30,0 L30,40 L60,40 L60,-60 L40,-60 L40,-80 L20,-80 L20,-60 L-20,-60 L-20,-80 L-40,-80 L-40,-60 Z" 
            fill="#ff8c00"/>
    </g>
  </g>
</svg>